# xmcd
#
# Track frame offsets:
#	150
#	18728
#	33632
#	44593
#	58189
#	66438
#	101850
#	119676
#	134597
#	152064
#	166442
#	177647
#	191276
#	201498
#	209335
#	220490
#
# Disc length: 2969 seconds
#
# Revision: 2
# Processed by: cddbd v1.5.2PL0 Copyright (c) Steve Scherf et al.
# Submitted via: EZCDAudioConverter 2.1.7.1
#
DISCID=0e0b9710
DTITLE=V/A - Abbey Road Now!
DYEAR=2009
DGENRE=
TTITLE0=The Invisible - Come Together
TTITLE1=Leisure Society - Something
TTITLE2=Let's Wrestle - Maxwell's Silver Hammer
TTITLE3=Broken Records - Oh! Darling
TTITLE4=Jeffrey Lewis - Octopus's Garden
TTITLE5=Robyn Hitchcock - I Want You (She's So Heavy)
TTITLE6=Charlie Dore - Here Comes The Sun
TTITLE7=Martin John Henry - Because
TTITLE8=Glenn Tilbrook with Nine Below Zero - You Never Give Me Your Money
TTITLE9=Gomez - Sun King
TTITLE10=Cornershop - Mean Mr. Mustard/Polythene Pam
TTITLE11=Karima Francis - She Came In Through The Bathroom Window
TTITLE12=Blue Roses - Golden Slumbers
TTITLE13=Noah and The Whale - Carry That Weight
TTITLE14=Loose Salute - The End
TTITLE15=Low Anthem - Her Majesty
EXTD=
EXTT0=
EXTT1=
EXTT2=
EXTT3=
EXTT4=
EXTT5=
EXTT6=
EXTT7=
EXTT8=
EXTT9=
EXTT10=
EXTT11=
EXTT12=
EXTT13=
EXTT14=
EXTT15=
PLAYORDER=
